<svg width="144" height="144" viewBox="0 0 144 144" fill="none" xmlns="http://www.w3.org/2000/svg">
<g clip-path="url(#clip0_1338_2315)">
<path opacity="0.45" d="M123.727 24.812V110.706C123.727 112.048 123.194 113.336 122.245 114.285C121.295 115.235 120.007 115.768 118.665 115.768H21.071C19.7284 115.768 18.4407 115.235 17.4913 114.285C16.5419 113.336 16.0085 112.048 16.0085 110.706V24.812C16.0085 23.4694 16.5419 22.1817 17.4913 21.2323C18.4407 20.2829 19.7284 19.7495 21.071 19.7495H118.665C120.007 19.7495 121.295 20.2829 122.245 21.2323C123.194 22.1817 123.727 23.4694 123.727 24.812Z" fill="#F6F6F6"/>
<g style="mix-blend-mode:multiply">
<path d="M87.083 115.774H52.689L62.1052 99.4612C65.5646 93.465 74.199 93.4762 77.6668 99.4612L87.083 115.774Z" fill="#E7E7E7"/>
</g>
<path d="M123.724 24.8147V31.0359H16.0029V24.8147C16.0029 23.472 16.5363 22.1844 17.4857 21.235C18.4351 20.2856 19.7228 19.7522 21.0654 19.7522H118.659C119.324 19.7518 119.983 19.8825 120.597 20.1367C121.212 20.391 121.77 20.7638 122.241 21.234C122.711 21.7041 123.084 22.2623 123.339 22.8767C123.593 23.4911 123.724 24.1496 123.724 24.8147Z" fill="#4F4F4F"/>
<path d="M23.6389 27.5877C24.8521 27.5877 25.8355 26.6043 25.8355 25.3911C25.8355 24.178 24.8521 23.1946 23.6389 23.1946C22.4258 23.1946 21.4424 24.178 21.4424 25.3911C21.4424 26.6043 22.4258 27.5877 23.6389 27.5877Z" fill="#F6F6F6"/>
<path d="M31.95 27.5879C33.1631 27.5879 34.1465 26.6045 34.1465 25.3914C34.1465 24.1783 33.1631 23.1948 31.95 23.1948C30.7369 23.1948 29.7534 24.1783 29.7534 25.3914C29.7534 26.6045 30.7369 27.5879 31.95 27.5879Z" fill="#F6F6F6"/>
<path d="M118.654 116.62H21.0598C19.4945 116.617 17.9944 115.993 16.8876 114.886C15.7807 113.779 15.1573 112.279 15.1536 110.714V24.8118C15.1573 23.2465 15.7807 21.7464 16.8876 20.6395C17.9944 19.5327 19.4945 18.9092 21.0598 18.9055H118.654C120.22 18.9055 121.722 19.5278 122.83 20.6354C123.938 21.7431 124.56 23.2453 124.56 24.8118V110.708C124.561 111.484 124.408 112.253 124.112 112.97C123.815 113.688 123.38 114.339 122.832 114.888C122.283 115.437 121.632 115.873 120.915 116.17C120.198 116.467 119.43 116.62 118.654 116.62ZM21.0711 20.5874C19.9522 20.5874 18.8791 21.0319 18.088 21.823C17.2968 22.6142 16.8523 23.6873 16.8523 24.8061V110.708C16.8523 111.827 17.2968 112.9 18.088 113.691C18.8791 114.483 19.9522 114.927 21.0711 114.927H118.665C119.784 114.927 120.857 114.483 121.648 113.691C122.439 112.9 122.884 111.827 122.884 110.708V24.8118C122.884 23.6929 122.439 22.6198 121.648 21.8287C120.857 21.0375 119.784 20.593 118.665 20.593L21.0711 20.5874Z" fill="#4F4F4F"/>
<path d="M73.7549 101.382L88.6443 127.173C89.0361 127.852 89.2424 128.623 89.2422 129.407C89.242 130.191 89.0355 130.962 88.6433 131.641C88.2512 132.32 87.6872 132.884 87.008 133.276C86.3289 133.668 85.5585 133.875 84.7743 133.875H54.9955C54.2113 133.875 53.4409 133.668 52.7617 133.276C52.0826 132.884 51.5186 132.32 51.1265 131.641C50.7343 130.962 50.5278 130.191 50.5276 129.407C50.5274 128.623 50.7336 127.852 51.1255 127.173L66.0149 101.382C66.4072 100.703 66.9713 100.139 67.6506 99.7468C68.33 99.3546 69.1005 99.1482 69.8849 99.1482C70.6693 99.1482 71.4398 99.3546 72.1191 99.7468C72.7985 100.139 73.3626 100.703 73.7549 101.382Z" fill="#F6F6F6"/>
<path d="M84.7743 134.719H54.9956C54.0632 134.719 53.1472 134.473 52.3397 134.007C51.5322 133.541 50.8617 132.87 50.3954 132.063C49.9291 131.255 49.6835 130.339 49.6833 129.407C49.6832 128.475 49.9284 127.559 50.3943 126.751L65.2865 100.969C65.7524 100.161 66.4228 99.49 67.2303 99.0235C68.0378 98.5571 68.9538 98.3115 69.8864 98.3115C70.8189 98.3115 71.735 98.5571 72.5424 99.0235C73.3499 99.49 74.0203 100.161 74.4862 100.969L89.3756 126.759C89.8403 127.567 90.0846 128.482 90.0837 129.413C90.0829 130.345 89.837 131.26 89.3708 132.066C88.9047 132.873 88.2345 133.542 87.4277 134.008C86.6209 134.473 85.7058 134.719 84.7743 134.719ZM66.7462 101.812L51.8568 127.603C51.5402 128.154 51.374 128.778 51.3747 129.413C51.3755 130.048 51.5433 130.672 51.8613 131.222C52.1792 131.772 52.6362 132.229 53.1863 132.546C53.7364 132.864 54.3604 133.031 54.9956 133.031H84.7743C85.4107 133.031 86.0358 132.864 86.587 132.546C87.1382 132.228 87.596 131.771 87.9144 131.22C88.2328 130.669 88.4005 130.044 88.4008 129.407C88.401 128.771 88.2338 128.146 87.9159 127.595L73.0237 101.812C72.706 101.261 72.2486 100.803 71.6976 100.485C71.1465 100.166 70.5214 99.9985 69.8849 99.9985C69.2485 99.9985 68.6233 100.166 68.0723 100.485C67.5213 100.803 67.0639 101.261 66.7462 101.812Z" fill="#4F4F4F"/>
<path d="M66.96 108.354V116.46L67.874 121.522H69.8821V121.525L71.8903 121.522L72.8071 116.454L72.81 108.343L66.96 108.354Z" fill="#FF3151"/>
<path d="M72.0787 125.136H67.6855V129.53H72.0787V125.136Z" fill="#FF3151"/>
<path d="M108.228 78.8315H60.4124V82.8506H108.228V78.8315Z" fill="#D1D1D1"/>
<path d="M54.233 78.8315H31.3843V82.8506H54.233V78.8315Z" fill="#D1D1D1"/>
<path d="M89.2515 88.605H31.3843V92.624H89.2515V88.605Z" fill="#D1D1D1"/>
<path d="M52.7568 71.668H47.6746V60.9805H32.8809V55.1249L46.5693 40.0049H52.7568V71.668ZM39.0402 55.8871H47.6746V46.3471L39.0402 55.8871Z" fill="#FF3151"/>
<path d="M105.469 71.6683H100.375V60.9808H85.5815V55.1251L99.2812 39.9995H105.469V71.6683ZM91.7494 55.8873H100.387V46.3473L91.7494 55.8873Z" fill="#FF3151"/>
<path d="M72.1771 71.2717H67.5843C65.2963 71.2687 63.1028 70.3583 61.4852 68.7401C59.8675 67.1219 58.9578 64.9282 58.9556 62.6401V48.6283C58.9578 46.3405 59.8676 44.147 61.4853 42.5293C63.1031 40.9116 65.2965 40.0017 67.5843 39.9995H72.1771C74.4652 40.0017 76.6589 40.9115 78.2771 42.5291C79.8953 44.1467 80.8057 46.3402 80.8087 48.6283V62.6401C80.8057 64.9285 79.8954 67.1222 78.2773 68.7403C76.6592 70.3584 74.4655 71.2687 72.1771 71.2717ZM67.5843 45.0789C66.6432 45.0796 65.7408 45.4538 65.0754 46.1193C64.4099 46.7848 64.0357 47.6871 64.0349 48.6283V62.6401C64.0357 63.5813 64.4099 64.4836 65.0754 65.1491C65.7408 65.8146 66.6432 66.1888 67.5843 66.1895H72.1771C73.1183 66.1888 74.0206 65.8146 74.6861 65.1491C75.3516 64.4836 75.7258 63.5813 75.7265 62.6401V48.6283C75.7258 47.6871 75.3516 46.7848 74.6861 46.1193C74.0206 45.4538 73.1183 45.0796 72.1771 45.0789H67.5843Z" fill="#FF3151"/>
<path d="M128.874 13.6303L125.436 17.0688L126.629 18.2621L130.067 14.8236L128.874 13.6303Z" fill="#4F4F4F"/>
<path d="M133.442 20.832H128.579V22.5195H133.442V20.832Z" fill="#4F4F4F"/>
<path d="M123.159 10.125H121.472V14.9878H123.159V10.125Z" fill="#4F4F4F"/>
<path d="M23.2818 122.875H21.5943V121.188H23.2818V122.875ZM18.6215 122.625C18.0256 122.494 17.4414 122.314 16.8749 122.088L17.4965 120.518C17.9776 120.708 18.4733 120.859 18.9786 120.968L18.6215 122.625ZM14.2311 120.606C13.7457 120.241 13.2905 119.837 12.8699 119.399L14.0877 118.229C14.4458 118.6 14.8333 118.941 15.2465 119.25L14.2311 120.606ZM11.0811 116.949C10.7905 116.415 10.544 115.859 10.3443 115.284L11.939 114.722C12.1097 115.206 12.3184 115.677 12.5633 116.128L11.0811 116.949ZM9.73958 112.317C9.70864 111.814 9.71427 111.49 9.71427 110.573H11.4018C11.4018 111.631 11.4018 111.8 11.4243 112.205L9.73958 112.317ZM11.4018 107.761H9.71427V106.073H11.4018V107.761ZM11.4018 103.261H9.71427V101.573H11.4018V103.261ZM11.4018 98.7609H9.71427V97.0734H11.4018V98.7609ZM11.4018 94.2609H9.71427V92.6184H11.4018V94.2609Z" fill="#D1D1D1"/>
<path d="M108.225 88.605H95.5181V92.624H108.225V88.605Z" fill="#D1D1D1"/>
</g>
<defs>
<clipPath id="clip0_1338_2315">
<rect width="144" height="144" fill="white"/>
</clipPath>
</defs>
</svg>
