<svg width="144" height="144" viewBox="0 0 144 144" fill="none" xmlns="http://www.w3.org/2000/svg">
<g clip-path="url(#clip0_1338_1378)">
<path d="M91.8535 10.1167H49.4017C44.4156 10.1167 40.3735 14.1587 40.3735 19.1448V110.903C40.3735 115.889 44.4156 119.931 49.4017 119.931H91.8535C96.8396 119.931 100.882 115.889 100.882 110.903V19.1448C100.882 14.1587 96.8396 10.1167 91.8535 10.1167Z" fill="#E7E7E7"/>
<path d="M96.1623 18.7143V111.333C96.1626 111.842 96.0626 112.347 95.8679 112.818C95.6731 113.289 95.3875 113.717 95.0273 114.077C94.6671 114.437 94.2394 114.723 93.7687 114.918C93.298 115.114 92.7934 115.214 92.2838 115.214H48.9713C47.942 115.214 46.9548 114.805 46.2269 114.077C45.499 113.349 45.0901 112.362 45.0901 111.333V18.7143C45.0901 17.6849 45.499 16.6977 46.2269 15.9698C46.9548 15.2419 47.942 14.833 48.9713 14.833H58.2891C58.9284 14.833 59.5415 15.087 59.9935 15.539C60.4455 15.991 60.6995 16.6041 60.6995 17.2433C60.6991 17.56 60.7612 17.8735 60.8822 18.1661C61.0032 18.4587 61.1807 18.7246 61.4046 18.9485C61.6285 19.1724 61.8943 19.3499 62.1869 19.4709C62.4795 19.5919 62.7931 19.654 63.1098 19.6536H78.1285C78.7678 19.6536 79.3809 19.3997 79.8329 18.9477C80.2849 18.4956 80.5388 17.8826 80.5388 17.2433C80.5388 16.6046 80.7924 15.9919 81.2438 15.54C81.6952 15.088 82.3076 14.8338 82.9463 14.833H92.281C92.7908 14.8326 93.2957 14.9328 93.7667 15.1277C94.2378 15.3226 94.6658 15.6085 95.0263 15.969C95.3868 16.3295 95.6727 16.7575 95.8676 17.2285C96.0625 17.6996 96.1626 18.2045 96.1623 18.7143Z" fill="#F6F6F6"/>
<path d="M83.52 36.48H48.96V39.36H83.52V36.48Z" fill="#FF3151"/>
<path d="M65.2801 44.1599H57.6001V47.0399H65.2801V44.1599Z" fill="#D1D1D1"/>
<path d="M92.1601 44.1599H69.1201V47.0399H92.1601V44.1599Z" fill="#D1D1D1"/>
<g style="mix-blend-mode:multiply">
<path d="M100.881 92.6045V110.905C100.881 113.299 99.9292 115.595 98.2362 117.287C96.5432 118.98 94.2473 119.931 91.8533 119.931H78.5418C75.6843 105.804 86.5124 92.6045 100.881 92.6045Z" fill="#E7E7E7"/>
</g>
<path d="M77.4842 92.6043H63.7704C62.7037 92.6043 61.6808 92.1806 60.9265 91.4263C60.1723 90.6721 59.7485 89.6491 59.7485 88.5824C59.7485 87.5158 60.1723 86.4928 60.9265 85.7385C61.6808 84.9843 62.7037 84.5605 63.7704 84.5605H77.4842C78.5508 84.5605 79.5738 84.9843 80.3281 85.7385C81.0823 86.4928 81.506 87.5158 81.506 88.5824C81.506 89.6491 81.0823 90.6721 80.3281 91.4263C79.5738 92.1806 78.5508 92.6043 77.4842 92.6043Z" fill="#D1D1D1"/>
<path d="M91.8535 120.774H49.4017C46.7846 120.772 44.2754 119.732 42.4246 117.882C40.5739 116.031 39.5328 113.522 39.5298 110.905V19.1447C39.535 16.5289 40.577 14.0218 42.4275 12.173C44.2779 10.3241 46.7858 9.28422 49.4017 9.28125H91.8535C94.4706 9.28497 96.9794 10.3262 98.8299 12.1768C100.68 14.0273 101.722 16.5361 101.725 19.1531V110.905C101.722 113.522 100.68 116.031 98.8297 117.881C96.9791 119.731 94.4703 120.771 91.8535 120.774ZM49.4017 10.9688C47.2317 10.971 45.1513 11.834 43.6169 13.3684C42.0825 14.9027 41.2195 16.9832 41.2173 19.1531V110.905C41.2203 113.075 42.0836 115.154 43.6179 116.688C45.1522 118.222 47.2322 119.085 49.4017 119.087H91.8535C94.023 119.085 96.103 118.222 97.6373 116.688C99.1716 115.154 100.035 113.075 100.038 110.905V19.1447C100.033 16.9762 99.1695 14.8979 97.6353 13.3654C96.1012 11.8328 94.022 10.971 91.8535 10.9688H49.4017Z" fill="#4F4F4F"/>
<path d="M100.882 133.867C111.082 133.867 119.351 125.597 119.351 115.397C119.351 105.196 111.082 96.9272 100.882 96.9272C90.681 96.9272 82.4119 105.196 82.4119 115.397C82.4119 125.597 90.681 133.867 100.882 133.867Z" fill="#F6F6F6"/>
<path d="M100.882 134.719C97.0617 134.719 93.3277 133.586 90.1516 131.464C86.9755 129.342 84.5001 126.325 83.0383 122.796C81.5765 119.267 81.194 115.384 81.9392 111.637C82.6844 107.891 84.5239 104.45 87.2249 101.749C89.9259 99.0475 93.3673 97.2081 97.1137 96.4629C100.86 95.7177 104.743 96.1002 108.272 97.562C111.802 99.0237 114.818 101.499 116.94 104.675C119.062 107.851 120.195 111.585 120.195 115.405C120.198 117.942 119.7 120.455 118.731 122.8C117.761 125.144 116.339 127.274 114.545 129.069C112.751 130.863 110.621 132.285 108.276 133.255C105.931 134.224 103.419 134.722 100.882 134.719ZM100.882 97.7793C97.3947 97.7788 93.986 98.8123 91.0865 100.749C88.187 102.686 85.9271 105.439 84.5924 108.661C83.2578 111.882 82.9085 115.427 83.5886 118.847C84.2687 122.266 85.9477 125.408 88.4133 127.873C90.8789 130.339 94.0203 132.018 97.4402 132.698C100.86 133.378 104.405 133.029 107.626 131.694C110.848 130.36 113.601 128.1 115.538 125.2C117.475 122.301 118.508 118.892 118.507 115.405C118.505 110.731 116.647 106.248 113.342 102.942C110.038 99.6359 105.556 97.7761 100.882 97.7709V97.7793Z" fill="#5D5D5D"/>
<path d="M32.7375 55.949H28.1194V57.6365H32.7375V55.949Z" fill="#5D5D5D"/>
<path d="M33.1205 60.6002L29.855 63.8657L31.0482 65.059L34.3137 61.7935L33.1205 60.6002Z" fill="#4F4F4F"/>
<path d="M30.764 48.6407L29.5708 49.834L32.8343 53.0975L34.0276 51.9043L30.764 48.6407Z" fill="#4F4F4F"/>
<path d="M113.214 56.0586H108.596V57.7461H113.214V56.0586Z" fill="#4F4F4F"/>
<path d="M110.282 48.6363L107.016 51.9019L108.209 53.0951L111.475 49.8296L110.282 48.6363Z" fill="#4F4F4F"/>
<path d="M108.498 60.5985L107.305 61.7917L110.57 65.0573L111.763 63.864L108.498 60.5985Z" fill="#4F4F4F"/>
<path d="M71.4709 113.282H69.7834V111.594H71.4709V113.282ZM71.4709 108.782H69.7834V107.094H71.4709V108.782ZM71.4709 104.282H69.7834V102.594H71.4709V104.282ZM71.4709 99.7817H69.7834V98.0942H71.4709V99.7817Z" fill="#D1D1D1"/>
<path d="M71.4709 130.551H69.7834V129.004H71.4709V130.551ZM71.4709 126.191H69.7834V124.504H71.4709V126.191Z" fill="#D1D1D1"/>
<path d="M81.3599 130.66H79.6724V128.973H81.3599V130.66ZM76.8599 130.66H75.1724V128.973H76.8599V130.66Z" fill="#D1D1D1"/>
<path d="M107.792 30.136C108.687 30.136 109.546 30.4916 110.178 31.1245C110.811 31.7574 111.167 32.6159 111.167 33.511C111.167 32.6159 111.523 31.7574 112.156 31.1245C112.788 30.4916 113.647 30.136 114.542 30.136C113.647 30.136 112.788 29.7804 112.156 29.1475C111.523 28.5145 111.167 27.6561 111.167 26.761C111.167 27.6561 110.811 28.5145 110.178 29.1475C109.546 29.7804 108.687 30.136 107.792 30.136Z" fill="#FF3151"/>
<path d="M24.75 108.931C25.9308 108.931 27.0632 109.4 27.8982 110.235C28.7331 111.07 29.2022 112.202 29.2022 113.383C29.2022 112.203 29.6709 111.071 30.5052 110.236C31.3395 109.401 32.4713 108.932 33.6516 108.931C32.4715 108.931 31.3398 108.462 30.5054 107.628C29.671 106.793 29.2022 105.661 29.2022 104.481C29.2022 105.066 29.087 105.645 28.8632 106.185C28.6395 106.725 28.3115 107.215 27.898 107.629C27.4845 108.042 26.9937 108.37 26.4536 108.593C25.9134 108.816 25.3345 108.931 24.75 108.931Z" fill="#FF3151"/>
<path d="M33.0723 126.563C33.8628 126.561 34.646 126.715 35.3769 127.016C36.1077 127.318 36.7719 127.76 37.3313 128.319C37.8907 128.878 38.3344 129.541 38.6368 130.272C38.9393 131.002 39.0946 131.785 39.0938 132.576C39.0923 130.983 39.7235 129.455 40.8484 128.327C41.9734 127.199 43.5001 126.565 45.0929 126.563C43.5018 126.56 41.9768 125.926 40.8522 124.8C39.7277 123.675 39.0953 122.149 39.0938 120.558C39.0931 121.348 38.9367 122.129 38.6336 122.859C38.3306 123.588 37.8867 124.25 37.3275 124.808C36.7683 125.366 36.1046 125.808 35.3745 126.109C34.6443 126.41 33.862 126.564 33.0723 126.563Z" fill="#FF3151"/>
<path d="M101.28 104.86C98.7337 104.863 96.2664 105.735 94.2949 107.329L91.6113 104.64V112.883H99.7837L97.0237 110.097C101.752 106.663 108.449 110.001 108.449 115.798C108.449 116.73 108.264 117.652 107.903 118.512C107.543 119.373 107.015 120.155 106.349 120.813C105.684 121.472 104.893 121.994 104.023 122.351C103.154 122.707 102.221 122.89 101.28 122.89C100.339 122.89 99.4063 122.707 98.5365 122.351C97.6667 121.994 96.8764 121.472 96.2107 120.813C95.545 120.155 95.0169 119.373 94.6566 118.512C94.2964 117.652 94.1109 116.73 94.1109 115.798H90.24C90.24 117.958 90.8875 120.07 92.1006 121.866C93.3137 123.662 95.0379 125.062 97.0552 125.889C99.0725 126.715 101.292 126.931 103.434 126.51C105.575 126.089 107.542 125.048 109.086 123.521C110.63 121.994 111.682 120.048 112.108 117.929C112.534 115.81 112.315 113.615 111.48 111.619C110.644 109.623 109.229 107.918 107.413 106.717C105.598 105.517 103.463 104.877 101.28 104.877V104.86Z" fill="#F01436"/>
</g>
<defs>
<clipPath id="clip0_1338_1378">
<rect width="144" height="144" fill="white"/>
</clipPath>
</defs>
</svg>
