<svg width="144" height="144" viewBox="0 0 144 144" fill="none" xmlns="http://www.w3.org/2000/svg">
<g clip-path="url(#clip0_1338_1096)">
<path opacity="0.45" d="M48.1471 52.3293L56.1937 101.247H112.61L116.412 59.6615L48.1471 52.3293Z" fill="#F6F6F6"/>
<path d="M104.107 67.7644C104.5 67.7993 104.882 67.9118 105.231 68.0954C105.58 68.2791 105.889 68.5302 106.14 68.8342C106.392 69.1382 106.58 69.4891 106.694 69.8665C106.809 70.2439 106.847 70.6402 106.807 71.0326L104.777 91.1616C104.724 91.654 104.484 92.1074 104.108 92.4291C103.731 92.7508 103.246 92.9163 102.752 92.8919C102.257 92.8674 101.79 92.6548 101.447 92.2976C101.105 91.9404 100.911 91.4656 100.907 90.9704L100.865 70.7401C100.864 70.326 100.949 69.9163 101.116 69.5371C101.282 69.1579 101.525 68.8175 101.83 68.5376C102.135 68.2576 102.495 68.0443 102.887 67.9112C103.279 67.7781 103.695 67.7281 104.107 67.7644Z" fill="#D1D1D1"/>
<path style="mix-blend-mode:multiply" d="M115.203 72.9028L112.61 101.25H97.7315C92.8125 88.366 101.557 74.3035 115.203 72.9028Z" fill="#E7E7E7"/>
<path d="M88.3041 124.912C91.0969 124.912 93.3609 122.648 93.3609 119.855C93.3609 117.062 91.0969 114.798 88.3041 114.798C85.5112 114.798 83.2472 117.062 83.2472 119.855C83.2472 122.648 85.5112 124.912 88.3041 124.912Z" fill="#4F4F4F"/>
<path d="M88.3041 121.677C89.3106 121.677 90.1266 120.861 90.1266 119.855C90.1266 118.848 89.3106 118.032 88.3041 118.032C87.2975 118.032 86.4816 118.848 86.4816 119.855C86.4816 120.861 87.2975 121.677 88.3041 121.677Z" fill="#F6F6F6"/>
<path d="M38.5144 124.912C41.3072 124.912 43.5713 122.648 43.5713 119.855C43.5713 117.062 41.3072 114.798 38.5144 114.798C35.7216 114.798 33.4575 117.062 33.4575 119.855C33.4575 122.648 35.7216 124.912 38.5144 124.912Z" fill="#4F4F4F"/>
<path d="M38.5144 121.677C39.5209 121.677 40.3369 120.861 40.3369 119.855C40.3369 118.848 39.5209 118.032 38.5144 118.032C37.5079 118.032 36.6919 118.848 36.6919 119.855C36.6919 120.861 37.5079 121.677 38.5144 121.677Z" fill="#F6F6F6"/>
<path d="M38.5143 125.758C37.3461 125.758 36.2042 125.412 35.2329 124.763C34.2617 124.114 33.5047 123.191 33.0576 122.112C32.6106 121.033 32.4936 119.845 32.7215 118.7C32.9494 117.554 33.5119 116.501 34.3379 115.675C35.1639 114.849 36.2163 114.287 37.362 114.059C38.5077 113.831 39.6953 113.948 40.7745 114.395C41.8537 114.842 42.7762 115.599 43.4252 116.57C44.0741 117.542 44.4205 118.684 44.4205 119.852C44.4205 121.418 43.7983 122.921 42.6906 124.028C41.583 125.136 40.0807 125.758 38.5143 125.758ZM38.5143 115.633C37.6799 115.633 36.8642 115.88 36.1705 116.344C35.4767 116.808 34.936 117.466 34.6167 118.237C34.2974 119.008 34.2138 119.856 34.3766 120.675C34.5394 121.493 34.9412 122.245 35.5312 122.835C36.1212 123.425 36.8729 123.827 37.6912 123.989C38.5096 124.152 39.3579 124.069 40.1287 123.749C40.8996 123.43 41.5585 122.889 42.022 122.196C42.4856 121.502 42.733 120.686 42.733 119.852C42.7308 118.734 42.2853 117.664 41.4944 116.874C40.7035 116.085 39.6317 115.641 38.5143 115.641V115.633Z" fill="#4F4F4F"/>
<path d="M88.3125 125.758C87.1444 125.758 86.0024 125.412 85.0312 124.763C84.0599 124.114 83.3029 123.191 82.8558 122.112C82.4088 121.033 82.2918 119.845 82.5197 118.7C82.7476 117.554 83.3101 116.501 84.1362 115.675C84.9622 114.849 86.0146 114.287 87.1603 114.059C88.306 113.831 89.4935 113.948 90.5727 114.395C91.652 114.842 92.5744 115.599 93.2234 116.57C93.8724 117.542 94.2188 118.684 94.2188 119.852C94.2188 121.418 93.5965 122.921 92.4889 124.028C91.3812 125.136 89.8789 125.758 88.3125 125.758ZM88.3125 115.633C87.4781 115.633 86.6625 115.88 85.9687 116.344C85.2749 116.808 84.7342 117.466 84.4149 118.237C84.0956 119.008 84.012 119.856 84.1748 120.675C84.3376 121.493 84.7394 122.245 85.3294 122.835C85.9194 123.425 86.6711 123.827 87.4895 123.989C88.3078 124.152 89.1561 124.069 89.927 123.749C90.6978 123.43 91.3567 122.889 91.8203 122.196C92.2838 121.502 92.5313 120.686 92.5313 119.852C92.529 118.734 92.0836 117.664 91.2926 116.874C90.5017 116.085 89.4299 115.641 88.3125 115.641V115.633Z" fill="#4F4F4F"/>
<path d="M44.6023 32.7471L41.0206 36.3289L42.2139 37.5221L45.7956 33.9404L44.6023 32.7471Z" fill="#4F4F4F"/>
<path d="M38.2865 29.2078H36.599V34.2731H38.2865V29.2078Z" fill="#4F4F4F"/>
<path d="M49.4746 39.9487H44.4093V41.6362H49.4746V39.9487Z" fill="#4F4F4F"/>
<path opacity="0.45" d="M48.1472 52.3293H26.145L39.3469 101.247H56.1938L48.1472 52.3293Z" fill="#F6F6F6"/>
<path d="M113.38 102.094H55.4765L47.1346 51.373L117.329 58.9105L113.38 102.094ZM56.9109 100.406H111.839L115.495 60.4124L49.1596 53.2855L56.9109 100.406Z" fill="#4F4F4F"/>
<path d="M57.1866 102.094H38.7L25.0312 51.4856H48.8531L57.1866 102.094ZM39.9937 100.406H55.2009L47.43 53.1731H27.2475L39.9937 100.406Z" fill="#4F4F4F"/>
<path d="M50.1018 53.173H25.785L15.075 42.0017H39.5718L50.1018 53.173ZM26.505 51.4855H46.1925L38.8434 43.6892H19.0321L26.505 51.4855Z" fill="#4F4F4F"/>
<path d="M37.1475 45.7397H12.1753C11.423 45.7162 10.7093 45.4009 10.1855 44.8604C9.6616 44.32 9.36865 43.5969 9.36865 42.8442C9.36865 42.0915 9.6616 41.3684 10.1855 40.828C10.7093 40.2875 11.423 39.9722 12.1753 39.9487H37.1475C37.8998 39.9722 38.6134 40.2875 39.1373 40.828C39.6611 41.3684 39.9541 42.0915 39.9541 42.8442C39.9541 43.5969 39.6611 44.32 39.1373 44.8604C38.6134 45.4009 37.8998 45.7162 37.1475 45.7397ZM12.1753 41.625C11.865 41.64 11.5724 41.7738 11.3581 41.9987C11.1437 42.2236 11.0242 42.5223 11.0242 42.833C11.0242 43.1436 11.1437 43.4423 11.3581 43.6672C11.5724 43.8921 11.865 44.0259 12.1753 44.0409H37.1475C37.4578 44.0259 37.7504 43.8921 37.9647 43.6672C38.179 43.4423 38.2985 43.1436 38.2985 42.833C38.2985 42.5223 38.179 42.2236 37.9647 41.9987C37.7504 41.7738 37.4578 41.64 37.1475 41.625H12.1753Z" fill="#4F4F4F"/>
<path d="M37.1475 40.7812H12.1753C11.6443 40.8009 11.1416 41.0257 10.7728 41.4083C10.4041 41.7909 10.1981 42.3016 10.1981 42.833C10.1981 43.3643 10.4041 43.875 10.7728 44.2576C11.1416 44.6403 11.6443 44.865 12.1753 44.8847H37.1475C37.6785 44.865 38.1812 44.6403 38.5499 44.2576C38.9186 43.875 39.1246 43.3643 39.1246 42.833C39.1246 42.3016 38.9186 41.7909 38.5499 41.4083C38.1812 41.0257 37.6785 40.8009 37.1475 40.7812Z" fill="#4F4F4F"/>
<path d="M57.0374 120.698H38.5031V101.247H40.1906V119.011H55.3499V101.247H57.0374V120.698Z" fill="#4F4F4F"/>
<path d="M105.474 120.698H55.35V101.247H57.0375V119.011H105.474V120.698Z" fill="#4F4F4F"/>
<path d="M56.1937 124.912C58.9866 124.912 61.2506 122.648 61.2506 119.855C61.2506 117.062 58.9866 114.798 56.1937 114.798C53.4009 114.798 51.1368 117.062 51.1368 119.855C51.1368 122.648 53.4009 124.912 56.1937 124.912Z" fill="#4F4F4F"/>
<path d="M105.477 124.912C108.27 124.912 110.534 122.648 110.534 119.855C110.534 117.062 108.27 114.798 105.477 114.798C102.684 114.798 100.42 117.062 100.42 119.855C100.42 122.648 102.684 124.912 105.477 124.912Z" fill="#4F4F4F"/>
<path d="M56.1937 125.758C55.0256 125.758 53.8837 125.412 52.9124 124.763C51.9411 124.114 51.1841 123.191 50.7371 122.112C50.29 121.033 50.1731 119.845 50.401 118.7C50.6289 117.554 51.1914 116.501 52.0174 115.675C52.8434 114.849 53.8958 114.287 55.0415 114.059C56.1872 113.831 57.3747 113.948 58.454 114.395C59.5332 114.842 60.4556 115.599 61.1046 116.57C61.7536 117.542 62.1 118.684 62.1 119.852C62.1 121.418 61.4777 122.921 60.3701 124.028C59.2624 125.136 57.7602 125.758 56.1937 125.758ZM56.1937 115.633C55.3593 115.633 54.5437 115.88 53.8499 116.344C53.1561 116.808 52.6154 117.466 52.2961 118.237C51.9768 119.008 51.8933 119.856 52.056 120.675C52.2188 121.493 52.6206 122.245 53.2106 122.835C53.8006 123.425 54.5523 123.827 55.3707 123.989C56.189 124.152 57.0373 124.069 57.8082 123.749C58.5791 123.43 59.2379 122.889 59.7015 122.196C60.1651 121.502 60.4125 120.686 60.4125 119.852C60.4102 118.734 59.9648 117.664 59.1739 116.874C58.3829 116.085 57.3112 115.641 56.1937 115.641V115.633Z" fill="#4F4F4F"/>
<path d="M105.469 125.758C104.301 125.758 103.159 125.412 102.187 124.763C101.216 124.114 100.459 123.191 100.012 122.112C99.5651 121.033 99.4481 119.845 99.676 118.7C99.9039 117.554 100.466 116.501 101.292 115.675C102.118 114.849 103.171 114.287 104.317 114.059C105.462 113.831 106.65 113.948 107.729 114.395C108.808 114.842 109.731 115.599 110.38 116.57C111.029 117.542 111.375 118.684 111.375 119.852C111.375 121.418 110.753 122.921 109.645 124.028C108.537 125.136 107.035 125.758 105.469 125.758ZM105.469 115.633C104.634 115.633 103.819 115.88 103.125 116.344C102.431 116.808 101.89 117.466 101.571 118.237C101.252 119.008 101.168 119.856 101.331 120.675C101.494 121.493 101.896 122.245 102.486 122.835C103.076 123.425 103.827 123.827 104.646 123.989C105.464 124.152 106.312 124.069 107.083 123.749C107.854 123.43 108.513 122.889 108.977 122.196C109.44 121.502 109.688 120.686 109.688 119.852C109.685 118.734 109.24 117.664 108.449 116.874C107.658 116.085 106.586 115.641 105.469 115.641V115.633Z" fill="#4F4F4F"/>
<path d="M56.1769 121.677C57.1834 121.677 57.9994 120.861 57.9994 119.855C57.9994 118.848 57.1834 118.032 56.1769 118.032C55.1703 118.032 54.3544 118.848 54.3544 119.855C54.3544 120.861 55.1703 121.677 56.1769 121.677Z" fill="#F6F6F6"/>
<path d="M105.477 121.677C106.484 121.677 107.3 120.861 107.3 119.855C107.3 118.848 106.484 118.032 105.477 118.032C104.471 118.032 103.655 118.848 103.655 119.855C103.655 120.861 104.471 121.677 105.477 121.677Z" fill="#F6F6F6"/>
<path d="M66.1724 64.0939C67.0276 64.1699 67.8234 64.5634 68.4028 65.197C68.9822 65.8305 69.3033 66.6582 69.3028 67.5167V90.9448C69.2803 91.4295 69.0798 91.8887 68.7395 92.2346C68.3993 92.5804 67.9434 92.7884 67.4592 92.8187C66.975 92.8491 66.4967 92.6996 66.1159 92.3989C65.7352 92.0982 65.4789 91.6676 65.3962 91.1895L62.4599 67.947C62.3958 67.4379 62.4465 66.9209 62.6083 66.4339C62.77 65.9469 63.0388 65.5023 63.3949 65.1328C63.7509 64.7633 64.1852 64.4781 64.6658 64.2984C65.1465 64.1186 65.6613 64.0487 66.1724 64.0939Z" fill="#D1D1D1"/>
<path d="M86.1243 66.1415C86.5758 66.1818 87.0149 66.3107 87.4165 66.5208C87.8181 66.731 88.1743 67.0182 88.4648 67.3662C88.7553 67.7141 88.9743 68.1159 89.1093 68.5486C89.2444 68.9813 89.2928 69.4363 89.2518 69.8877L87.3168 91.108C87.3056 91.6302 87.0875 92.1265 86.7103 92.4878C86.3332 92.8491 85.828 93.0458 85.3059 93.0346C84.7837 93.0234 84.2874 92.8053 83.9261 92.4281C83.5648 92.051 83.3681 91.5458 83.3793 91.0237L82.3724 69.7499C82.3475 69.2571 82.4287 68.7646 82.6104 68.3059C82.7922 67.8471 83.0703 67.4326 83.4259 67.0906C83.7816 66.7485 84.2066 66.4868 84.6721 66.323C85.1376 66.1593 85.6328 66.0974 86.1243 66.1415Z" fill="#D1D1D1"/>
<path d="M105.477 124.071H12.7827V125.758H105.477V124.071Z" fill="#4F4F4F"/>
<path d="M70.3687 49.4717V47.7842C70.8609 47.8192 71.3556 47.7879 71.8396 47.6914L72.253 49.3255C71.635 49.4633 71.0005 49.5125 70.3687 49.4717ZM67.5562 49.4717H65.8687V47.7842H67.5562V49.4717ZM74.998 47.4186L73.6115 46.4595C73.8645 46.0956 74.0354 45.681 74.1121 45.2445L75.7743 45.5258C75.6578 46.2061 75.3928 46.8524 74.998 47.4186ZM73.7155 43.1211C73.4849 42.7425 73.1762 42.4174 72.8099 42.1676L73.7605 40.7614C74.3297 41.1471 74.8092 41.6507 75.1668 42.238L73.7155 43.1211ZM70.6218 41.6361H68.9343V39.9486H70.6218V41.6361ZM66.1218 41.6361C65.5092 41.6681 64.895 41.6398 64.288 41.5517L64.589 39.8895C65.0969 39.9572 65.6101 39.9769 66.1218 39.9486V41.6361ZM61.394 39.9992C60.9288 39.5182 60.5578 38.9545 60.2999 38.337L61.8552 37.6873C62.0318 38.1108 62.2866 38.4972 62.6062 38.8264L61.394 39.9992ZM61.6752 35.443L60.0299 35.0689C60.1779 34.4158 60.448 33.7965 60.8258 33.2436L62.2321 34.1942C61.9623 34.5683 61.7657 34.9901 61.6527 35.4373L61.6752 35.443ZM63.9955 32.8077L63.3908 31.2186C64.0138 30.9899 64.6736 30.8784 65.3371 30.8895V32.577C64.8719 32.5672 64.4091 32.6455 63.973 32.8077H63.9955ZM81.6721 32.5827V30.8952C82.1764 30.9282 82.6828 30.9065 83.1824 30.8305L83.5255 32.4842C82.9059 32.5878 82.2766 32.6208 81.6496 32.5827H81.6721ZM78.8596 32.5827H77.1721V30.8952H78.8596V32.5827ZM74.3596 32.5827H72.6721V30.8952H74.3596V32.5827ZM69.8596 32.5827H68.1721V30.8952H69.8596V32.5827ZM86.3437 30.6927L84.9965 29.6745C85.2683 29.3236 85.4603 28.9176 85.559 28.4848L87.2071 28.8448C87.0567 29.5161 86.7621 30.1466 86.3437 30.6927ZM85.618 25.858C85.618 25.8298 85.4858 25.8411 87.3055 25.8411L85.618 25.858Z" fill="#D1D1D1"/>
<path d="M89.5021 25.723H85.604V24.8792C85.6055 23.6026 86.1133 22.3788 87.0159 21.4761C87.9186 20.5735 89.1424 20.0657 90.419 20.0642H94.3199V20.908C94.3184 22.185 93.8103 23.4093 92.907 24.312C92.0037 25.2148 90.7792 25.7222 89.5021 25.723ZM87.4068 24.0355H89.5021C90.1872 24.0379 90.8541 23.8159 91.4011 23.4035C91.9481 22.9911 92.345 22.411 92.5312 21.7517H90.4331C89.7484 21.7494 89.0818 21.9715 88.5353 22.3839C87.9888 22.7963 87.5924 23.3764 87.4068 24.0355Z" fill="#D1D1D1"/>
<path d="M87.2915 25.723H83.3934C82.1163 25.7222 80.8918 25.2148 79.9885 24.312C79.0852 23.4093 78.5771 22.185 78.5756 20.908V20.0642H82.4765C83.7531 20.0657 84.9769 20.5735 85.8796 21.4761C86.7822 22.3788 87.29 23.6026 87.2915 24.8792V25.723ZM80.3784 21.7517C80.5639 22.4086 80.9587 22.9871 81.5028 23.3993C82.047 23.8115 82.7107 24.0348 83.3934 24.0355H85.4999C85.315 23.3787 84.9207 22.8004 84.377 22.3882C83.8334 21.976 83.17 21.7525 82.4878 21.7517H80.3784Z" fill="#D1D1D1"/>
<path d="M107.437 28.0574L106.841 27.4612C106.394 27.014 106.039 26.4831 105.797 25.8987C105.554 25.3143 105.43 24.6879 105.43 24.0553C105.43 23.4226 105.554 22.7962 105.797 22.2118C106.039 21.6274 106.394 21.0965 106.841 20.6493L109.6 17.8931L110.197 18.4893C110.644 18.9365 110.999 19.4674 111.241 20.0518C111.483 20.6362 111.608 21.2626 111.608 21.8953C111.608 22.5279 111.483 23.1543 111.241 23.7387C110.999 24.3231 110.644 24.854 110.197 25.3012L107.437 28.0574ZM109.519 20.3596L108.037 21.8446C107.554 22.3281 107.243 22.9564 107.151 23.6335C107.059 24.3105 107.191 24.999 107.527 25.5937L109.01 24.1115C109.493 23.628 109.805 22.9995 109.898 22.3221C109.991 21.6447 109.86 20.9555 109.524 20.3596H109.519Z" fill="#D1D1D1"/>
<path d="M99.0702 29.6212L98.474 29.0249L101.23 26.2687C101.677 25.8212 102.208 25.4662 102.793 25.224C103.377 24.9818 104.004 24.8572 104.636 24.8572C105.269 24.8572 105.895 24.9818 106.48 25.224C107.064 25.4662 107.595 25.8212 108.042 26.2687L108.638 26.8649L105.879 29.6212C105.433 30.0692 104.902 30.4248 104.318 30.6673C103.734 30.9099 103.107 31.0348 102.475 31.0348C101.842 31.0348 101.216 30.9099 100.632 30.6673C100.047 30.4248 99.5168 30.0692 99.0702 29.6212ZM100.941 28.9462C101.536 29.2812 102.224 29.412 102.901 29.3185C103.577 29.2251 104.205 28.9125 104.687 28.4287L106.169 26.9465C105.574 26.612 104.886 26.4813 104.209 26.5742C103.533 26.6672 102.906 26.9786 102.423 27.4612L100.941 28.9462Z" fill="#D1D1D1"/>
<path d="M117.335 53.173L117.298 51.4855C117.754 51.4775 118.203 51.382 118.623 51.2043L119.289 52.754C118.671 53.0179 118.007 53.1602 117.335 53.173ZM90.9675 52.3293H89.28V50.6418H90.9675V52.3293ZM114.187 52.2083C113.639 51.8199 113.171 51.3301 112.807 50.7655L114.213 49.8515C114.461 50.2349 114.78 50.5679 115.152 50.833L114.187 52.2083ZM121.756 50.5658L120.299 49.7221C120.528 49.3291 120.679 48.8955 120.743 48.4452L122.414 48.6843C122.319 49.3482 122.095 49.9872 121.756 50.5658ZM90.9675 47.8293H89.28C89.2438 47.1964 89.2997 46.5617 89.4459 45.9449L91.08 46.364C90.9734 46.8446 90.9355 47.338 90.9675 47.8293ZM113.659 47.6296H111.971C112 47.1556 111.949 46.6802 111.819 46.2233L113.434 45.7312C113.613 46.3471 113.689 46.9887 113.659 47.6296ZM122.467 45.748H120.78V44.0605H122.467V45.748ZM92.2865 44.4824L91.2234 43.1718C91.7454 42.7483 92.3442 42.4294 92.9868 42.2324L93.4818 43.844C93.0462 43.9783 92.6404 44.195 92.2865 44.4824ZM110.526 44.384C110.161 44.1122 109.746 43.9145 109.305 43.8018L109.727 42.1677C110.379 42.3331 110.991 42.6256 111.53 43.0283L110.526 44.384ZM106.715 43.6893H105.027V42.0018H106.715V43.6893ZM102.215 43.6893H100.527V42.0018H102.215V43.6893ZM97.7147 43.6893H96.0272V42.0018H97.7147V43.6893ZM122.465 41.248H120.777V39.5605H122.465V41.248ZM122.465 36.748H120.777V35.0605H122.465V36.748ZM120.608 32.5293C120.471 32.0954 120.25 31.6924 119.959 31.3424L121.255 30.2624C121.686 30.78 122.013 31.3759 122.217 32.0174L120.608 32.5293ZM118.077 30.1555C117.591 30.0554 117.093 30.0214 116.598 30.0543V28.3668C117.228 28.3303 117.86 28.3804 118.477 28.5158L118.077 30.1555ZM113.785 30.0543H112.098V28.3668H113.785V30.0543Z" fill="#D1D1D1"/>
<path d="M30.0347 99.6019C29.6131 99.602 29.198 99.4983 28.826 99.2999C28.4541 99.1016 28.1367 98.8147 27.9018 98.4646C27.667 98.1146 27.5219 97.712 27.4795 97.2926C27.437 96.8732 27.4985 96.4498 27.6585 96.0598C27.8184 95.6698 28.0719 95.3251 28.3966 95.0563C28.7213 94.7874 29.1072 94.6027 29.5202 94.5183C29.9333 94.4339 30.3607 94.4525 30.7648 94.5724C31.169 94.6924 31.5373 94.91 31.8375 95.206C32.2015 95.5631 32.4508 96.0207 32.5535 96.5201C32.6563 97.0196 32.6078 97.5384 32.4143 98.0102C32.2208 98.482 31.8911 98.8854 31.4672 99.169C31.0434 99.4525 30.5446 99.6032 30.0347 99.6019ZM30.0347 96.1538C29.8603 96.1538 29.6899 96.2056 29.545 96.3026C29.4001 96.3996 29.2873 96.5374 29.2208 96.6986C29.1544 96.8597 29.1373 97.037 29.1717 97.2079C29.2061 97.3789 29.2905 97.5357 29.4142 97.6586C29.5379 97.7815 29.6953 97.8649 29.8664 97.8982C30.0375 97.9315 30.2147 97.9133 30.3755 97.8458C30.5362 97.7783 30.6733 97.6646 30.7694 97.5191C30.8654 97.3736 30.9161 97.2028 30.915 97.0285C30.9135 96.796 30.8201 96.5735 30.6552 96.4097C30.4902 96.2458 30.2672 96.1538 30.0347 96.1538Z" fill="#4F4F4F"/>
<path d="M21.1078 112.939C20.4159 112.939 19.7395 112.734 19.1638 112.35C18.5881 111.966 18.139 111.42 17.8729 110.782C17.6069 110.143 17.5359 109.44 17.6688 108.761C17.8018 108.082 18.1328 107.457 18.62 106.966C19.1073 106.475 19.7291 106.139 20.407 106.001C21.085 105.862 21.7887 105.928 22.4295 106.189C23.0703 106.45 23.6195 106.894 24.0079 107.467C24.3964 108.04 24.6066 108.714 24.6122 109.406C24.6155 109.869 24.5273 110.327 24.3528 110.755C24.1782 111.184 23.9206 111.573 23.5949 111.902C23.2692 112.23 22.8818 112.491 22.4549 112.669C22.0281 112.847 21.5703 112.938 21.1078 112.939ZM21.1078 107.62C20.7478 107.62 20.396 107.727 20.0969 107.927C19.7979 108.128 19.565 108.412 19.4279 108.745C19.2908 109.078 19.2557 109.444 19.3269 109.797C19.3982 110.15 19.5726 110.473 19.8281 110.727C20.0836 110.98 20.4087 111.152 20.762 111.221C21.1154 111.289 21.4811 111.251 21.8129 111.112C22.1446 110.972 22.4274 110.737 22.6253 110.436C22.8233 110.136 22.9274 109.783 22.9247 109.423C22.9202 108.944 22.7269 108.486 22.3867 108.148C22.0466 107.811 21.587 107.621 21.1078 107.62Z" fill="#4F4F4F"/>
<path d="M117.371 110.298C126.486 110.298 133.875 102.909 133.875 93.794C133.875 84.6793 126.486 77.2903 117.371 77.2903C108.256 77.2903 100.867 84.6793 100.867 93.794C100.867 102.909 108.256 110.298 117.371 110.298Z" fill="#F6F6F6"/>
<path d="M117.371 111.144C113.94 111.145 110.585 110.128 107.731 108.222C104.878 106.315 102.653 103.606 101.34 100.436C100.026 97.2652 99.682 93.7766 100.351 90.4108C101.02 87.045 102.672 83.9532 105.099 81.5264C107.525 79.0996 110.617 77.4469 113.982 76.7772C117.348 76.1075 120.837 76.4509 124.007 77.7641C127.178 79.0772 129.888 81.301 131.794 84.1543C133.701 87.0076 134.719 90.3622 134.719 93.7939C134.714 98.3937 132.885 102.804 129.633 106.057C126.381 109.309 121.971 111.139 117.371 111.144ZM117.371 78.1339C114.273 78.1334 111.245 79.0516 108.668 80.7724C106.092 82.4932 104.084 84.9394 102.898 87.8015C101.713 90.6637 101.402 93.8132 102.006 96.8517C102.611 99.8903 104.102 102.681 106.293 104.872C108.484 107.063 111.275 108.554 114.313 109.159C117.352 109.763 120.501 109.453 123.364 108.267C126.226 107.081 128.672 105.073 130.393 102.497C132.114 99.9206 133.032 96.892 133.031 93.7939C133.026 89.6422 131.374 85.6621 128.439 82.7264C125.503 79.7907 121.523 78.1391 117.371 78.1339Z" fill="#4F4F4F"/>
<path d="M121.649 84.9273L108.524 98.053L112.969 102.498L126.094 89.3721L121.649 84.9273Z" fill="#F01436"/>
<path d="M112.97 84.9272L108.526 89.3721L121.651 102.498L126.096 98.0529L112.97 84.9272Z" fill="#F01436"/>
</g>
<defs>
<clipPath id="clip0_1338_1096">
<rect width="144" height="144" fill="white"/>
</clipPath>
</defs>
</svg>
