<svg width="144" height="144" viewBox="0 0 144 144" fill="none" xmlns="http://www.w3.org/2000/svg">
<g clip-path="url(#clip0_1338_1232)">
<path style="mix-blend-mode:multiply" d="M98.4429 112.047V111.032L105.744 105.311L112.981 111.218L113.048 112.047H98.4429Z" fill="#E7E7E7"/>
<path d="M113.965 112.891H97.5938V110.621L105.75 104.231L113.788 110.793L113.965 112.891ZM99.5906 111.203H111.628L105.722 106.391L99.5906 111.203Z" fill="#4F4F4F"/>
<path d="M93.2203 36.0318H87.8063V30.479C87.8063 27.3036 86.5449 24.2583 84.2995 22.0129C82.0542 19.7676 79.0089 18.5062 75.8335 18.5062C72.6581 18.5062 69.6128 19.7676 67.3674 22.0129C65.1221 24.2583 63.8607 27.3036 63.8607 30.479V36.0318H58.4438L58.4438 30.479C58.4145 28.1769 58.8426 25.892 59.7033 23.7566C60.5641 21.6213 61.8402 19.6782 63.4578 18.0399C65.0753 16.4017 67.0021 15.1009 69.1263 14.2131C71.2505 13.3253 73.5298 12.8682 75.8321 12.8682C78.1343 12.8682 80.4137 13.3253 82.5379 14.2131C84.6621 15.1009 86.5888 16.4017 88.2064 18.0399C89.8239 19.6782 91.1001 21.6213 91.9608 23.7566C92.8215 25.892 93.2496 28.1769 93.2203 30.479V36.0318Z" fill="#FF3151"/>
<path d="M93.2232 30.4761V36.0317H87.8063V30.4761C87.8046 27.9713 87.0174 25.5301 85.5555 23.4962C84.0936 21.4623 82.0306 19.9381 79.657 19.1382C77.2834 18.3382 74.7186 18.3029 72.3239 19.0372C69.9291 19.7714 67.8249 21.2382 66.3075 23.2311C64.962 22.9648 63.5689 23.0794 62.285 23.5619C61.001 24.0443 59.8772 24.8756 59.04 25.9621C60.1347 21.8902 62.6714 18.3548 66.1782 16.0137C69.6849 13.6726 73.9228 12.6854 78.1031 13.2357C82.2835 13.786 86.1215 15.8364 88.9029 19.0053C91.6843 22.1742 93.2196 26.2457 93.2232 30.4621V30.4761Z" fill="#FF3151"/>
<path style="mix-blend-mode:multiply" d="M85.86 23.9428C84.8135 22.3353 83.3959 21.003 81.7266 20.0582C80.0573 19.1134 78.1853 18.5838 76.2684 18.514C74.3515 18.4443 72.446 18.8364 70.7125 19.6574C68.9789 20.4784 67.4681 21.7041 66.3075 23.2313C64.962 22.965 63.5689 23.0795 62.285 23.562C61.001 24.0445 59.8772 24.8757 59.04 25.9622C60.1602 21.8135 62.7752 18.2257 66.3817 15.8892C69.9882 13.5526 74.3315 12.6326 78.5757 13.306C82.0085 16.0474 84.5449 19.7511 85.86 23.9428Z" fill="#D1D1D1"/>
<path opacity="0.45" d="M98.4375 112.047H28.9912C31.1653 77.6925 29.88 97.9846 33.8034 36.0928H93.6281L98.4375 112.047Z" fill="#F6F6F6"/>
<path style="mix-blend-mode:multiply" d="M52.439 112.047H28.9912L30.4706 88.6472C36.4188 89.03 41.9987 91.661 46.0784 96.0065C50.1581 100.352 52.432 106.087 52.439 112.047Z" fill="#E7E7E7"/>
<path d="M106.85 36.0928H93.6282L98.4432 112.047H113.048L106.85 36.0928Z" fill="#D1D1D1"/>
<path d="M101.398 36.0256L99.7156 36.1519L104.908 105.373L106.591 105.246L101.398 36.0256Z" fill="#4F4F4F"/>
<path style="mix-blend-mode:multiply" d="M113.049 112.047H73.0211L76.5339 56.627H108.526L113.049 112.047Z" fill="#E7E7E7"/>
<path d="M99.3405 112.891H28.0914L33.0105 35.249H94.4186L99.3405 112.891ZM29.8886 111.203H97.5433L92.8352 36.9365H34.5939L29.8886 111.203Z" fill="#4F4F4F"/>
<path d="M113.966 112.891H97.6531L92.7284 35.249H107.635L113.966 112.891ZM99.2337 111.203H112.135L106.074 36.9365H94.5425L99.2337 111.203Z" fill="#4F4F4F"/>
<path d="M82.2656 46.5918H76.8488V30.479C76.8488 27.3036 75.5873 24.2583 73.342 22.0129C71.0967 19.7676 68.0513 18.5062 64.8759 18.5062C61.7006 18.5062 58.6552 19.7676 56.4099 22.0129C54.1646 24.2583 52.9031 27.3036 52.9031 30.479V46.5918H47.4891V30.479C47.4598 28.1769 47.8879 25.892 48.7486 23.7566C49.6093 21.6213 50.8855 19.6782 52.503 18.0399C54.1206 16.4017 56.0474 15.1009 58.1716 14.2131C60.2958 13.3253 62.5751 12.8682 64.8774 12.8682C67.1796 12.8682 69.459 13.3253 71.5831 14.2131C73.7073 15.1009 75.6341 16.4017 77.2517 18.0399C78.8692 19.6782 80.1454 21.6213 81.0061 23.7566C81.8668 25.892 82.2949 28.1769 82.2656 30.479V46.5918Z" fill="#FF3151"/>
<path d="M120.876 61.2112H80.8369L77.625 112.047H124.099L120.876 61.2112Z" fill="#F6F6F6"/>
<path d="M129.727 61.2112H120.879L124.099 112.047H133.875L129.727 61.2112Z" fill="#D1D1D1"/>
<path d="M124.999 112.891H76.7163L80.0463 60.3674H121.671L124.999 112.891ZM78.5135 111.203H123.187L120.093 62.0549H81.6297L78.5135 111.203Z" fill="#4F4F4F"/>
<path d="M134.789 112.891H123.306L119.978 60.3674H130.5L134.789 112.891ZM124.892 111.203H132.961L128.947 62.0549H121.781L124.892 111.203Z" fill="#4F4F4F"/>
<path d="M134.789 112.891H123.258V111.004L129.001 105.59L134.648 111.111L134.789 112.891ZM125.508 111.203H132.331L128.981 107.93L125.508 111.203Z" fill="#4F4F4F"/>
<path d="M126.352 61.1513L124.669 61.2795L128.142 106.828L129.824 106.7L126.352 61.1513Z" fill="#4F4F4F"/>
<path d="M91.0914 69.7219H94.3708V77.5322C94.3708 79.4552 95.1347 81.2994 96.4945 82.6592C97.8542 84.019 99.6984 84.7829 101.621 84.7829C103.544 84.7829 105.389 84.019 106.748 82.6592C108.108 81.2994 108.872 79.4552 108.872 77.5322V69.7219H112.151V77.5322C112.151 80.325 111.042 83.0033 109.067 84.9781C107.093 86.9528 104.414 88.0622 101.621 88.0622C98.8287 88.0622 96.1504 86.9528 94.1756 84.9781C92.2008 83.0033 91.0914 80.325 91.0914 77.5322V69.7219Z" fill="#D1D1D1"/>
<path d="M28.9884 130.91C39.4064 130.91 47.8519 122.465 47.8519 112.047C47.8519 101.629 39.4064 93.1836 28.9884 93.1836C18.5704 93.1836 10.125 101.629 10.125 112.047C10.125 122.465 18.5704 130.91 28.9884 130.91Z" fill="#F6F6F6"/>
<path d="M28.9884 131.754C25.0901 131.754 21.2792 130.598 18.0379 128.432C14.7965 126.266 12.2702 123.188 10.7785 119.586C9.2868 115.985 8.89664 112.021 9.65738 108.198C10.4181 104.375 12.2956 100.863 15.0524 98.1062C17.8091 95.3498 21.3214 93.4728 25.1449 92.7126C28.9685 91.9524 32.9316 92.3431 36.5331 93.8354C40.1346 95.3276 43.2127 97.8543 45.3781 101.096C47.5435 104.338 48.699 108.149 48.6984 112.047C48.6925 117.272 46.6139 122.282 42.9188 125.977C39.2236 129.671 34.2138 131.749 28.9884 131.754ZM28.9884 94.0245C25.4239 94.0245 21.9395 95.0816 18.9757 97.0619C16.0119 99.0422 13.7019 101.857 12.3378 105.15C10.9738 108.443 10.6168 112.067 11.3122 115.563C12.0077 119.059 13.7241 122.27 16.2446 124.791C18.7651 127.311 21.9764 129.028 25.4724 129.723C28.9685 130.419 32.5922 130.062 35.8854 128.698C39.1785 127.334 41.9933 125.024 43.9736 122.06C45.9539 119.096 47.0109 115.612 47.0109 112.047C47.0057 107.269 45.1053 102.688 41.7265 99.309C38.3478 95.9302 33.7667 94.0298 28.9884 94.0245Z" fill="#4F4F4F"/>
<path d="M28.3388 100.8C26.1515 100.8 24.0132 101.448 22.1946 102.664C20.3759 103.879 18.9585 105.606 18.1216 107.627C17.2846 109.648 17.0658 111.872 17.4927 114.017C17.9197 116.162 18.9732 118.133 20.5201 119.679C22.0669 121.226 24.0377 122.279 26.1831 122.705C28.3284 123.132 30.5521 122.912 32.5727 122.075C34.5934 121.237 36.3204 119.819 37.5352 118C38.75 116.181 39.3981 114.043 39.3975 111.856C39.3938 108.924 38.2274 106.114 36.1542 104.041C34.081 101.968 31.2704 100.803 28.3388 100.8ZM28.3388 119.793C26.8512 119.794 25.3936 119.375 24.1341 118.583L35.0663 107.654C35.8168 108.855 36.2322 110.235 36.2693 111.65C36.3065 113.066 35.964 114.466 35.2775 115.705C34.5911 116.943 33.5856 117.976 32.3654 118.694C31.1453 119.413 29.755 119.792 28.3388 119.793ZM28.3388 103.922C29.8264 103.92 31.2843 104.339 32.5435 105.131L21.6141 116.063C20.8591 114.862 20.44 113.481 20.4003 112.063C20.3607 110.645 20.7021 109.243 21.3888 108.002C22.0756 106.761 23.0826 105.726 24.305 105.007C25.5274 104.287 26.9203 103.909 28.3388 103.91V103.922Z" fill="#FF3151"/>
<path d="M104.906 25.2083C104.894 24.7632 104.971 24.3201 105.131 23.9046C105.291 23.4891 105.531 23.1094 105.839 22.7873C106.146 22.4652 106.514 22.2071 106.922 22.028C107.33 21.8488 107.769 21.752 108.214 21.7433C111.232 21.6617 112.815 25.2983 110.745 27.4667C110.281 27.9484 109.685 28.2824 109.033 28.4268C108.38 28.5712 107.699 28.5195 107.075 28.2783C106.451 28.0371 105.913 27.617 105.527 27.0708C105.141 26.5247 104.925 25.8767 104.906 25.2083ZM106.594 25.1689C106.602 25.5054 106.709 25.8321 106.903 26.1075C107.096 26.3829 107.367 26.5947 107.681 26.7161C107.995 26.8375 108.338 26.863 108.666 26.7895C108.995 26.716 109.294 26.5467 109.527 26.303C109.759 26.0594 109.914 25.7523 109.971 25.4207C110.029 25.089 109.987 24.7477 109.851 24.4399C109.714 24.1322 109.49 23.8717 109.205 23.6916C108.921 23.5115 108.59 23.4197 108.253 23.428C107.803 23.4405 107.376 23.6305 107.065 23.9566C106.754 24.2827 106.585 24.7185 106.594 25.1689Z" fill="#4F4F4F"/>
<path d="M121.14 37.9407C120.627 37.9406 120.125 37.7889 119.697 37.5048C119.269 37.2206 118.935 36.8166 118.735 36.3433C118.536 35.87 118.481 35.3484 118.577 34.8438C118.672 34.3393 118.915 33.8743 119.274 33.5069C119.633 33.1395 120.092 32.8862 120.594 32.7786C121.096 32.671 121.619 32.714 122.097 32.9021C122.575 33.0902 122.986 33.415 123.281 33.836C123.575 34.257 123.738 34.7554 123.75 35.2688C123.758 35.6166 123.696 35.9625 123.569 36.2862C123.441 36.6099 123.25 36.9048 123.007 37.1537C122.764 37.4025 122.474 37.6004 122.153 37.7355C121.832 37.8707 121.488 37.9404 121.14 37.9407ZM120.471 34.6951C120.367 34.8051 120.291 34.9391 120.251 35.0852C120.211 35.2314 120.207 35.3852 120.241 35.533C120.274 35.6808 120.343 35.8182 120.442 35.9328C120.542 36.0475 120.667 36.136 120.809 36.1905C120.95 36.2449 121.103 36.2637 121.253 36.2452C121.404 36.2266 121.547 36.1713 121.671 36.084C121.795 35.9968 121.896 35.8804 121.964 35.7451C122.032 35.6098 122.066 35.4597 122.063 35.3082C122.058 35.1255 122 34.9482 121.895 34.7987C121.79 34.6493 121.642 34.5344 121.472 34.4687C121.301 34.4031 121.115 34.3895 120.937 34.4298C120.759 34.4701 120.596 34.5624 120.471 34.6951Z" fill="#4F4F4F"/>
<path d="M26.8221 28.0663L25.6289 29.2595L29.7675 33.3981L30.9607 32.2048L26.8221 28.0663Z" fill="#4F4F4F"/>
<path d="M27.3008 36.7817H21.448V38.4692H27.3008V36.7817Z" fill="#4F4F4F"/>
<path d="M35.6792 23.7234H33.9917V29.5762H35.6792V23.7234Z" fill="#4F4F4F"/>
<path d="M95.2734 128.596H93.5859V126.908H95.2734V128.596ZM90.7734 128.596H89.0859V126.908H90.7734V128.596ZM86.2734 128.596H84.5859V126.908H86.2734V128.596ZM81.7734 128.596H80.0859V126.908H81.7734V128.596ZM77.2734 128.596H75.5859V126.908H77.2734V128.596ZM72.7734 128.596H71.0859V126.908H72.7734V128.596ZM68.2734 128.596H66.5859V126.908H68.2734V128.596ZM63.7734 128.596H62.0859V126.908H63.7734V128.596ZM59.2734 128.596H57.5859V126.908H59.2734V128.596ZM54.7734 128.596H53.0859V126.908H54.7734V128.596ZM50.2734 128.596H48.5859V126.908H50.2734V128.596ZM98.3672 128.247L97.7597 126.672C98.1858 126.51 98.5757 126.265 98.9072 125.952L100.06 127.184C99.5665 127.648 98.9865 128.01 98.3531 128.25L98.3672 128.247ZM101.635 124.287L99.9731 123.992C100.037 123.483 100.055 122.969 100.027 122.456H101.714C101.741 123.068 101.71 123.681 101.621 124.287H101.635ZM101.714 119.644H100.027V117.956H101.714V119.644Z" fill="#D1D1D1"/>
</g>
<defs>
<clipPath id="clip0_1338_1232">
<rect width="144" height="144" fill="white"/>
</clipPath>
</defs>
</svg>
