<svg width="144" height="132" viewBox="0 0 144 132" fill="none" xmlns="http://www.w3.org/2000/svg">
<g clip-path="url(#clip0_1004_7674)">
<g clip-path="url(#clip1_1004_7674)">
<path d="M120.975 65.6773C120.908 65.079 120.99 64.4734 121.211 63.9142C121.433 63.355 121.788 62.8594 122.245 62.4714C122.702 62.0835 123.248 61.815 123.832 61.6898C124.417 61.5647 125.024 61.5867 125.598 61.7539C126.173 61.9211 126.697 62.2284 127.125 62.6485C127.554 63.0687 127.873 63.5886 128.054 64.1625C128.235 64.7363 128.272 65.3462 128.163 65.9382C128.055 66.5302 127.802 67.086 127.429 67.5564C126.981 68.1237 126.376 68.5442 125.69 68.7645C125.004 68.9847 124.268 68.9948 123.577 68.7935C122.885 68.5922 122.269 68.1885 121.805 67.6336C121.342 67.0788 121.053 66.3979 120.975 65.6773ZM124.585 63.5496C124.344 63.549 124.106 63.5996 123.887 63.6982C123.667 63.7968 123.47 63.941 123.31 64.1216C123.149 64.3021 123.028 64.5148 122.955 64.7456C122.882 64.9764 122.858 65.2203 122.886 65.461C122.922 65.7912 123.053 66.1036 123.262 66.3607C123.471 66.6177 123.749 66.8083 124.063 66.9096C124.378 67.0108 124.714 67.0183 125.033 66.9311C125.351 66.8439 125.637 66.6659 125.857 66.4184C126.077 66.1709 126.222 65.8645 126.273 65.5363C126.324 65.2081 126.279 64.872 126.145 64.5687C126.01 64.2654 125.791 64.0078 125.514 63.8269C125.238 63.6461 124.915 63.5498 124.585 63.5496Z" fill="#4F4F4F"/>
<path d="M140.684 82.6826C140.14 82.6825 139.607 82.5236 139.151 82.2253C138.694 81.9269 138.333 81.5019 138.111 81.0014C137.889 80.501 137.816 79.9465 137.901 79.4051C137.985 78.8636 138.223 78.3584 138.586 77.9503C138.95 77.5422 139.423 77.2487 139.948 77.1054C140.473 76.962 141.028 76.9749 141.547 77.1425C142.065 77.31 142.524 77.6251 142.868 78.0496C143.212 78.4741 143.427 78.9899 143.487 79.5347C143.53 79.9312 143.49 80.3324 143.369 80.7123C143.247 81.0921 143.048 81.4419 142.784 81.7389C142.519 82.036 142.196 82.2736 141.834 82.4362C141.472 82.5988 141.08 82.6827 140.684 82.6826ZM139.976 79.2861C139.888 79.4027 139.829 79.5392 139.805 79.6837C139.782 79.8282 139.793 79.9764 139.839 80.1154C139.885 80.2544 139.964 80.38 140.069 80.4813C140.174 80.5826 140.302 80.6566 140.442 80.6969C140.582 80.7372 140.729 80.7425 140.872 80.7124C141.014 80.6824 141.147 80.6178 141.259 80.5243C141.371 80.4308 141.459 80.3112 141.514 80.1759C141.57 80.0406 141.592 79.8936 141.579 79.7478C141.562 79.567 141.492 79.3956 141.377 79.2559C141.262 79.1161 141.107 79.0147 140.934 78.9648C140.761 78.9149 140.576 78.9188 140.405 78.9762C140.234 79.0335 140.085 79.1415 139.976 79.2861Z" fill="#4F4F4F"/>
<path d="M1.4585 69.8435V101.013H25.0545L31.1467 105.324C34.4191 107.199 38.1057 108.221 41.8705 108.294C45.6353 108.367 49.3584 107.49 52.7003 105.743C55.8971 104.072 59.4453 103.196 63.0474 103.189L81.1605 103.154C82.3736 103.151 83.5743 102.908 84.6941 102.438C85.8139 101.969 86.8309 101.281 87.6869 100.416C88.5429 99.5501 89.2212 98.5233 89.6831 97.3938C90.145 96.2642 90.3814 95.0542 90.3789 93.8326V89.8258C90.3746 88.0209 89.951 86.242 89.1421 84.6314C88.3331 83.0208 87.1612 81.623 85.72 80.5498L70.4895 68.8264C64.8686 64.1739 57.7728 62.7081 50.6867 65.8238L26.8918 75.9748L1.4585 69.8435Z" fill="#F6F6F6"/>
<path d="M30.6756 106.164C30.5634 106.09 31.0315 106.419 24.7533 101.983H1.4587V100.046H25.3594L31.6664 104.505C34.7946 106.298 38.3196 107.273 41.9188 107.34C45.5179 107.406 49.0761 106.562 52.2676 104.886C55.6021 103.148 59.2995 102.235 63.054 102.222L78.9162 102.193C80.6947 102.151 82.3862 101.409 83.6281 100.126C84.87 98.8436 85.5636 97.1221 85.5602 95.3307C85.5569 93.5393 84.8568 91.8205 83.6101 90.5425C82.3634 89.2645 80.6692 88.529 78.8905 88.4937L54.8424 88.5421V86.6049C80.3655 86.5532 78.9899 86.5468 79.3554 86.5662C80.9526 86.6492 82.4963 87.1726 83.8181 88.079C85.1399 88.9855 86.189 90.2402 86.8507 91.7062C87.5125 93.1722 87.7616 94.7932 87.5707 96.392C87.3798 97.9908 86.7563 99.5061 85.7683 100.772C86.8994 100.009 87.8258 98.9766 88.4652 97.7661C89.1045 96.5557 89.4371 95.2049 89.4332 93.8339V89.8239C89.4224 88.1701 89.0294 86.5415 88.2853 85.0671C87.5413 83.5927 86.4665 82.313 85.1462 81.3292L69.8997 69.6059C64.1474 64.9243 57.4652 63.9072 51.062 66.7227L26.9722 77.0028L1.23425 70.7843L1.68315 68.902L26.8119 74.9623L50.3085 64.9533C57.3915 61.8377 64.7759 62.9516 71.0925 68.0916L86.3102 79.7892C87.8621 80.9541 89.1242 82.4659 89.9972 84.2055C90.8702 85.9452 91.3302 87.8651 91.341 89.8142V93.8242C91.3444 95.1732 91.0837 96.5096 90.5737 97.757C90.0638 99.0045 89.3146 100.138 88.3691 101.094C87.4236 102.05 86.3003 102.808 85.0634 103.327C83.8265 103.845 82.5003 104.112 81.1607 104.114L63.0476 104.15C59.6026 104.165 56.2107 105.006 53.1526 106.603C49.6699 108.434 45.7861 109.352 41.8584 109.276C37.9307 109.199 34.0852 108.129 30.6756 106.164Z" fill="#4F4F4F"/>
<path d="M30.7201 71.9038H13.3573V108.301H30.7201V71.9038Z" fill="#D1D1D1"/>
<path d="M31.682 109.269H12.3954V70.9351H31.682V109.269ZM14.3192 107.332H29.7581V72.8723H14.3192V107.332Z" fill="#4F4F4F"/>
<path d="M1.4585 108.3H13.3575V71.9028L1.4585 68.009V108.3Z" fill="#4F4F4F"/>
<path d="M14.3195 109.27H0.496582V66.6772L14.3195 71.1974V109.27ZM2.42043 107.333H12.3956V72.6083L2.42043 69.3441V107.333Z" fill="#4F4F4F"/>
<path d="M14.3195 109.27H0.496582V66.6772L14.3195 71.1974V109.27ZM2.42043 107.333H12.3956V72.6083L2.42043 69.3441V107.333Z" fill="#4F4F4F"/>
<path d="M126.082 78.6487H68.4085C65.653 78.6487 63.4193 80.8979 63.4193 83.6725V117.9C63.4193 120.674 65.653 122.924 68.4085 122.924H126.082C128.838 122.924 131.072 120.674 131.072 117.9V83.6725C131.072 80.8979 128.838 78.6487 126.082 78.6487Z" fill="#FF3151"/>
<path d="M126.082 123.892H68.4085C66.8315 123.889 65.3198 123.257 64.2044 122.135C63.089 121.012 62.4608 119.49 62.4574 117.902V83.6783C62.4591 82.0892 63.0865 80.5657 64.2021 79.4417C65.3177 78.3178 66.8304 77.6852 68.4085 77.6826H126.082C127.66 77.6852 129.173 78.3178 130.289 79.4417C131.404 80.5657 132.032 82.0892 132.033 83.6783V117.902C132.03 119.49 131.402 121.012 130.286 122.135C129.171 123.257 127.659 123.889 126.082 123.892ZM68.4085 79.6166C67.3398 79.6183 66.3155 80.047 65.5604 80.8085C64.8053 81.5701 64.3812 82.6022 64.3812 83.6783V117.902C64.3829 118.977 64.8078 120.008 65.5627 120.768C66.3176 121.528 67.3409 121.956 68.4085 121.958H126.082C127.15 121.957 128.174 121.529 128.929 120.769C129.684 120.009 130.109 118.978 130.11 117.902V83.6783C130.109 82.6027 129.684 81.5714 128.929 80.8106C128.174 80.0498 127.151 79.6215 126.082 79.6198L68.4085 79.6166Z" fill="#4F4F4F"/>
<path style="mix-blend-mode:multiply" d="M91.6103 95.303C91.6146 96.9837 91.2898 98.6488 90.6547 100.203C90.0195 101.757 89.0865 103.17 87.9088 104.361C86.7311 105.552 85.3318 106.498 83.791 107.144C82.2502 107.79 80.598 108.124 78.9289 108.127L63.4227 108.156V103.191L78.9193 103.158C80.9781 103.154 82.9509 102.326 84.4037 100.858C85.8565 99.3886 86.6703 97.3987 86.666 95.3256C86.6618 93.2525 85.8399 91.266 84.3811 89.8031C82.9223 88.3403 80.9461 87.5208 78.8873 87.5251L54.8391 87.5703C54.8379 86.9157 54.9648 86.2672 55.2127 85.6621C55.4606 85.0569 55.8246 84.507 56.2839 84.0436C56.7431 83.5803 57.2886 83.2127 57.8891 82.9619C58.4896 82.7111 59.1333 82.582 59.7834 82.582L78.8777 82.5432C82.2464 82.5355 85.4802 83.8754 87.8679 86.2682C90.2557 88.6611 91.6018 91.9109 91.6103 95.303Z" fill="#E7E7E7"/>
<path d="M54.8483 87.5734L78.8964 87.5249C79.916 87.5224 80.926 87.7222 81.8688 88.1129C82.8116 88.5036 83.6688 89.0776 84.3912 89.802C85.1136 90.5264 85.6871 91.3871 86.079 92.3348C86.471 93.2826 86.6735 94.2988 86.6752 95.3254C86.6777 96.3522 86.4794 97.3694 86.0914 98.319C85.7034 99.2685 85.1334 100.132 84.414 100.859C83.6946 101.587 82.8399 102.165 81.8987 102.56C80.9575 102.955 79.9482 103.159 78.9285 103.161L63.0664 103.191C59.4641 103.199 55.9162 104.076 52.7192 105.748" fill="#F6F6F6"/>
<path d="M53.1527 106.603L52.2677 104.882C55.6022 103.145 59.2996 102.232 63.0541 102.219L78.9162 102.19C80.6948 102.151 82.3875 101.412 83.6317 100.132C84.8758 98.8515 85.5726 97.1314 85.5726 95.3401C85.5726 93.5488 84.8758 91.8287 83.6317 90.5484C82.3875 89.2681 80.6948 88.5293 78.9162 88.4904L54.8681 88.5389V86.6017L78.9162 86.5532C80.0762 86.5286 81.2293 86.7371 82.3082 87.1665C83.3872 87.5959 84.3703 88.2375 85.2001 89.054C86.0298 89.8705 86.6896 90.8453 87.1409 91.9215C87.5921 92.9978 87.8257 94.1538 87.8281 95.322C87.8304 96.4902 87.6015 97.6472 87.1545 98.7252C86.7076 99.8033 86.0517 100.781 85.2252 101.601C84.3988 102.42 83.4182 103.066 82.341 103.5C81.2638 103.934 80.1115 104.147 78.9515 104.127L63.0894 104.156C59.6308 104.163 56.2238 105.002 53.1527 106.603Z" fill="#4F4F4F"/>
<path d="M117.967 96.0719C119.396 96.0719 120.767 95.5001 121.778 94.4822C122.789 93.4644 123.357 92.0839 123.357 90.6445C123.357 89.205 122.789 87.8245 121.778 86.8067C120.767 85.7889 119.396 85.217 117.967 85.217H110.364C108.935 85.217 107.564 85.7889 106.553 86.8067C105.542 87.8245 104.974 89.205 104.974 90.6445C104.974 92.0839 105.542 93.4644 106.553 94.4822C107.564 95.5001 108.935 96.0719 110.364 96.0719H117.967Z" fill="white"/>
<path d="M82.9563 109.709H72.6797C71.7234 109.709 70.9482 110.49 70.9482 111.453V112.405C70.9482 113.368 71.7234 114.149 72.6797 114.149H82.9563C83.9125 114.149 84.6877 113.368 84.6877 112.405V111.453C84.6877 110.49 83.9125 109.709 82.9563 109.709Z" fill="#F6F6F6"/>
<path d="M102.8 109.709H92.5238C91.5676 109.709 90.7924 110.49 90.7924 111.453V112.405C90.7924 113.368 91.5676 114.149 92.5238 114.149H102.8C103.757 114.149 104.532 113.368 104.532 112.405V111.453C104.532 110.49 103.757 109.709 102.8 109.709Z" fill="#F6F6F6"/>
<path d="M122.645 109.709H112.369C111.412 109.709 110.637 110.49 110.637 111.453V112.405C110.637 113.368 111.412 114.149 112.369 114.149H122.645C123.601 114.149 124.377 113.368 124.377 112.405V111.453C124.377 110.49 123.601 109.709 122.645 109.709Z" fill="#F6F6F6"/>
<path d="M22.0373 83.9889C23.4735 83.9889 24.6377 82.8166 24.6377 81.3704C24.6377 79.9243 23.4735 78.752 22.0373 78.752C20.6011 78.752 19.4369 79.9243 19.4369 81.3704C19.4369 82.8166 20.6011 83.9889 22.0373 83.9889Z" fill="#F6F6F6"/>
<path d="M66.959 8.12678C71.6203 7.35402 76.4043 7.97683 80.7171 9.9179C85.03 11.859 88.6817 15.0328 91.2188 19.0454C93.756 23.0579 95.0669 27.7325 94.9888 32.4887C94.9107 37.2448 93.447 41.8732 90.7795 45.7991L93.9442 55.4851L84.5366 52.1241C81.5574 54.1832 78.1569 55.5422 74.5862 56.1006C71.0156 56.6591 67.3659 56.4027 63.9068 55.3504C60.4478 54.2982 57.2676 52.477 54.6012 50.0212C51.9349 47.5655 49.8504 44.538 48.5018 41.1623C47.1531 37.7867 46.5748 34.1491 46.8095 30.5182C47.0441 26.8873 48.0858 23.3558 49.8576 20.1847C51.6293 17.0135 54.0859 14.2836 57.0459 12.1966C60.0059 10.1095 63.3936 8.7187 66.959 8.12678Z" fill="#F6F6F6"/>
<path d="M46.1175 36.218C45.0457 29.6083 46.6217 22.8405 50.4995 17.3995C54.3773 11.9585 60.2404 8.28868 66.8021 7.19531C67.0105 8.46741 67.0105 8.48678 66.8021 7.19531C71.6087 6.3997 76.5413 7.0307 80.9976 9.01125C85.4539 10.9918 89.241 14.2362 91.8965 18.3482C94.5519 22.4602 95.9607 27.2618 95.9509 32.1667C95.941 37.0716 94.5129 41.8674 91.841 45.9686L95.4707 57.072L84.6715 53.217C69.6943 63.1613 49.0898 54.4213 46.1175 36.218ZM67.1131 9.097C61.0548 10.1072 55.6417 13.496 52.0615 18.5198C48.4813 23.5437 47.0263 29.7924 48.0157 35.8951C50.6834 52.2516 69.4602 61.4017 84.3957 51.0505L92.4118 53.9176L89.712 45.6619C97.4426 34.2711 94.2234 20.2876 84.3669 13.1651C81.9008 11.3722 79.1062 10.0895 76.1446 9.39122C73.183 8.69293 70.1133 8.59293 67.1131 9.097Z" fill="#4F4F4F"/>
<path d="M48.1815 4.43414L46.8212 5.80396L51.0882 10.1006L52.4486 8.73079L48.1815 4.43414Z" fill="#4F4F4F"/>
<path d="M57.7055 0.15625H55.7816V6.23264H57.7055V0.15625Z" fill="#4F4F4F"/>
<path d="M48.4424 13.0938H42.408V15.031H48.4424V13.0938Z" fill="#4F4F4F"/>
<path d="M70.8678 42.3508C76.4867 42.3508 81.0418 37.7641 81.0418 32.1062C81.0418 26.4482 76.4867 21.8616 70.8678 21.8616C65.2489 21.8616 60.6938 26.4482 60.6938 32.1062C60.6938 37.7641 65.2489 42.3508 70.8678 42.3508Z" fill="#FF3151"/>
<path d="M87.4963 32.3165C87.5432 28.3315 86.177 24.4603 83.6433 21.3988C81.1096 18.3372 77.5744 16.286 73.6733 15.6139C69.7722 14.9418 65.761 15.6928 62.3605 17.732C58.9601 19.7712 56.3934 22.9648 55.1219 26.7388C53.8505 30.5129 53.9575 34.6198 55.4238 38.3215C56.8901 42.0232 59.6196 45.0768 63.1216 46.9336C66.6235 48.7904 70.6684 49.3285 74.5291 48.4513C78.3899 47.5741 81.8133 45.339 84.1841 42.1479" stroke="#E7E7E7" stroke-width="10" stroke-miterlimit="10"/>
<path d="M82.5032 32.25L92.5125 32.3653L87.303 37.3056L82.5032 32.25Z" fill="#E7E7E7"/>
<path d="M68.1235 36.6328L66.376 34.87L69.6337 31.5928V24.606H72.1058V32.6228L68.1235 36.6328Z" fill="#F6F6F6"/>
<path d="M91.6104 131.362H90.174V129.425H91.6104V131.362ZM86.9675 131.362H85.0437V129.425H86.9675V131.362ZM81.8373 131.362H79.9134V129.425H81.8373V131.362ZM76.707 131.362H74.7832V129.425H76.707V131.362ZM71.5767 131.362H69.6529V129.425H71.5767V131.362ZM66.2926 131.156C65.6119 131.036 64.9418 130.862 64.2885 130.636L64.9074 128.805C65.4683 128.997 66.0428 129.144 66.626 129.248L66.2926 131.156ZM61.1976 129.109C60.6221 128.726 60.0765 128.3 59.5655 127.833L60.8481 126.397C61.2864 126.798 61.7549 127.165 62.2493 127.494L61.1976 129.109ZM57.3274 125.199C56.948 124.619 56.6135 124.01 56.327 123.378L58.0777 122.574C58.323 123.117 58.6103 123.639 58.937 124.137L57.3274 125.199ZM55.3266 120.062C55.2098 119.377 55.1444 118.684 55.131 117.989L57.0549 117.954C57.0663 118.55 57.1231 119.145 57.2248 119.733L55.3266 120.062ZM57.0517 114.744H55.1278V112.807H57.0517V114.744Z" fill="#D1D1D1"/>
</g>
</g>
<defs>
<clipPath id="clip0_1004_7674">
<rect width="144" height="132" fill="white"/>
</clipPath>
<clipPath id="clip1_1004_7674">
<rect width="144" height="132" fill="white"/>
</clipPath>
</defs>
</svg>
